<?xml version="1.0" encoding="UTF-8" standalone="no"?>
<!DOCTYPE svg PUBLIC "-//W3C//DTD SVG 1.1//EN" "http://www.w3.org/Graphics/SVG/1.1/DTD/svg11.dtd">
<svg width="100%" height="100%" viewBox="0 0 2000 392" version="1.1" xmlns="http://www.w3.org/2000/svg" xmlns:xlink="http://www.w3.org/1999/xlink" xml:space="preserve" xmlns:serif="http://www.serif.com/" style="fill-rule:evenodd;clip-rule:evenodd;stroke-linejoin:round;stroke-miterlimit:2;">
    <g transform="matrix(1,0,0,1,0,-592)">
        <g id="divider2" transform="matrix(0.946713,0,0,1,106.452,182.857)">
            <rect x="-112.443" y="409.143" width="2112.44" height="391.714" style="fill:none;"/>
            <clipPath id="_clip1">
                <rect x="-112.443" y="409.143" width="2112.44" height="391.714"/>
            </clipPath>
            <g clip-path="url(#_clip1)">
                <g transform="matrix(-1.29447,1.80045e-16,7.03963e-16,1.63214,1989.66,-1337.31)">
                    <rect x="-8.443" y="1070.13" width="1632" height="240" style="fill:none;"/>
                    <clipPath id="_clip2">
                        <rect x="-8.443" y="1070.13" width="1632" height="240"/>
                    </clipPath>
                    <g clip-path="url(#_clip2)">
                        <g transform="matrix(0.816,6.00516e-17,1.33334e-16,0.612692,-8.44342,910.016)">
                            <path d="M-70.567,533.333C-70.567,533.333 102.482,337.589 491.135,348.936C879.787,360.284 1189.01,513.475 1617.38,513.475C1895.91,513.475 2099.44,357.447 2570.57,354.61L2071.49,-76.596L792.052,-107.801L-50.501,-85.106L-70.567,533.333Z"/>
                            <g transform="matrix(1,0,0,1,-116.312,22.6951)">
                                <path d="M-70.567,533.333C-70.567,533.333 102.482,337.589 491.135,348.936C879.787,360.284 1189.01,513.475 1617.38,513.475C1895.91,513.475 2099.44,357.447 2570.57,354.61L2071.49,-76.596L792.052,-107.801L-50.501,-85.106L-70.567,533.333Z" style="fill-opacity:0.7;"/>
                            </g>
                            <g transform="matrix(1.12184,0,0,1,-321.716,48.227)">
                                <path d="M-70.567,533.333C-70.567,533.333 102.482,337.589 491.135,348.936C879.787,360.284 1189.01,513.475 1617.38,513.475C1895.91,513.475 2099.44,357.447 2570.57,354.61L2071.49,-76.596L792.052,-107.801L-50.501,-85.106L-70.567,533.333Z" style="fill-opacity:0.5;"/>
                            </g>
                            <g transform="matrix(1.12184,0,0,1,-318.88,76.5958)">
                                <path d="M-70.567,533.333C-70.567,533.333 102.482,337.589 491.135,348.936C879.787,360.284 1189.01,513.475 1617.38,513.475C1895.91,513.475 2099.44,357.447 2570.57,354.61L2071.49,-76.596L792.052,-107.801L-50.501,-85.106L-70.567,533.333Z" style="fill-opacity:0.5;"/>
                            </g>
                            <g transform="matrix(1.02082,0.0186093,-0.0225339,1.23611,-181.341,-11.8751)">
                                <path d="M-70.567,533.333C-70.567,533.333 102.482,337.589 491.135,348.936C879.787,360.284 1189.01,513.475 1617.38,513.475C1895.91,513.475 2099.44,357.447 2570.57,354.61L2071.49,-76.596L792.052,-107.801L-50.501,-85.106L-70.567,533.333Z" style="fill-opacity:0.3;"/>
                            </g>
                        </g>
                    </g>
                </g>
            </g>
        </g>
    </g>
</svg>
